<svg xmlns="http://www.w3.org/2000/svg" width="1400" height="900" viewBox="0 0 1400 900">
  <defs>
    <marker id="arrow-blue" markerWidth="10" markerHeight="8" refX="9" refY="4" orient="auto"><path d="M0,0 L10,4 L0,8 Z" fill="#2563eb"/></marker>
    <marker id="arrow-orange" markerWidth="10" markerHeight="8" refX="9" refY="4" orient="auto"><path d="M0,0 L10,4 L0,8 Z" fill="#ea580c"/></marker>
    <marker id="arrow-green" markerWidth="10" markerHeight="8" refX="9" refY="4" orient="auto"><path d="M0,0 L10,4 L0,8 Z" fill="#059669"/></marker>
    <marker id="arrow-purple" markerWidth="10" markerHeight="8" refX="9" refY="4" orient="auto"><path d="M0,0 L10,4 L0,8 Z" fill="#7c3aed"/></marker>
    <style>
      text { font-family: "Microsoft YaHei", "Noto Sans CJK SC", Arial, sans-serif; fill: #0f172a; }
      .title { font-size: 28px; font-weight: 700; }
      .subtitle { font-size: 14px; fill: #475569; }
      .zone-title { font-size: 16px; font-weight: 700; }
      .node-title { font-size: 16px; font-weight: 700; }
      .node-sub { font-size: 12px; fill: #475569; }
      .arrow-label { font-size: 12px; font-weight: 600; }
      .legend { font-size: 12px; fill: #334155; }
    </style>
  </defs>
  <rect width="1400" height="900" fill="#f8fafc"/>
  <text x="48" y="52" class="title">Python 代码沙箱服务——当前架构</text>
  <text x="48" y="78" class="subtitle">产品边界：独立内部服务，仅供 Python 业务后端调用；不直接面向终端用户或公网</text>
  <rect x="40" y="120" width="250" height="500" rx="18" fill="#eff6ff" stroke="#2563eb" stroke-width="2" stroke-dasharray="8 6"/>
  <text x="65" y="154" class="zone-title" fill="#1d4ed8">Python 调用方区域</text>
  <rect x="72" y="205" width="186" height="140" rx="16" fill="#ffffff" stroke="#2563eb" stroke-width="2"/>
  <circle cx="105" cy="240" r="18" fill="#dbeafe" stroke="#2563eb"/>
  <text x="105" y="246" text-anchor="middle" font-size="15" font-weight="700" fill="#1d4ed8">Py</text>
  <text x="137" y="238" class="node-title">Python 业务系统</text>
  <text x="93" y="276" class="node-sub">唯一允许的业务调用方</text>
  <text x="93" y="298" class="node-sub">requests / httpx 客户端</text>
  <text x="93" y="320" class="node-sub">生成唯一随机 .py 文件名</text>
  <rect x="72" y="395" width="186" height="126" rx="14" fill="#dbeafe" stroke="#93c5fd"/>
  <text x="93" y="425" class="node-title" font-size="14">调用约束</text>
  <text x="93" y="452" class="node-sub">内部网络 + API Key</text>
  <text x="93" y="474" class="node-sub">/upload → /execute</text>
  <text x="93" y="496" class="node-sub">同步返回执行结果</text>
  <rect x="330" y="100" width="1030" height="540" rx="20" fill="#ffffff" stroke="#94a3b8" stroke-width="2" stroke-dasharray="10 6"/>
  <text x="360" y="134" class="zone-title">Kubernetes · yntrust-dev</text>
  <rect x="370" y="205" width="170" height="95" rx="14" fill="#fff7ed" stroke="#f97316" stroke-width="2"/>
  <text x="455" y="240" text-anchor="middle" class="node-title">内部 Ingress</text>
  <text x="455" y="266" text-anchor="middle" class="node-sub">code-sandbox.internal.net</text>
  <text x="455" y="284" text-anchor="middle" class="node-sub">跨集群时使用</text>
  <rect x="580" y="205" width="160" height="95" rx="14" fill="#f0fdf4" stroke="#16a34a" stroke-width="2"/>
  <text x="660" y="240" text-anchor="middle" class="node-title">ClusterIP Service</text>
  <text x="660" y="266" text-anchor="middle" class="node-sub">code-sandbox:32004</text>
  <text x="660" y="284" text-anchor="middle" class="node-sub">同集群优先直连</text>
  <rect x="780" y="145" width="530" height="430" rx="18" fill="#f8fafc" stroke="#64748b" stroke-width="2"/>
  <text x="805" y="176" class="zone-title">Sandbox Pods · 2～10 副本</text>
  <rect x="820" y="195" width="190" height="82" rx="13" fill="#eff6ff" stroke="#3b82f6" stroke-width="2"/>
  <text x="915" y="228" text-anchor="middle" class="node-title">FastAPI API</text>
  <text x="915" y="252" text-anchor="middle" class="node-sub">鉴权 · 校验 · Request ID</text>
  <rect x="1050" y="195" width="210" height="82" rx="13" fill="#ecfdf5" stroke="#10b981" stroke-width="2"/>
  <text x="1155" y="228" text-anchor="middle" class="node-title">UploadStorage</text>
  <text x="1155" y="252" text-anchor="middle" class="node-sub">分块保存 · 路径校验 · 7 天清理</text>
  <rect x="820" y="325" width="190" height="82" rx="13" fill="#fff7ed" stroke="#f97316" stroke-width="2"/>
  <text x="915" y="358" text-anchor="middle" class="node-title">ExecutionGate</text>
  <text x="915" y="382" text-anchor="middle" class="node-sub">每 Pod 并发 2 · 队列 20</text>
  <rect x="1050" y="325" width="210" height="82" rx="13" fill="#f5f3ff" stroke="#8b5cf6" stroke-width="2"/>
  <text x="1155" y="356" text-anchor="middle" class="node-title">受限 Python 子进程</text>
  <text x="1155" y="380" text-anchor="middle" class="node-sub">-I · rlimit · 超时杀进程树</text>
  <rect x="1050" y="465" width="210" height="72" rx="13" fill="#f1f5f9" stroke="#64748b" stroke-width="2" stroke-dasharray="6 4"/>
  <text x="1155" y="494" text-anchor="middle" class="node-title">一次性工作目录</text>
  <text x="1155" y="518" text-anchor="middle" class="node-sub">执行结束自动删除</text>
  <rect x="390" y="430" width="180" height="105" rx="14" fill="#fefce8" stroke="#eab308" stroke-width="2"/>
  <text x="480" y="463" text-anchor="middle" class="node-title">ConfigMap / Secret</text>
  <text x="480" y="488" text-anchor="middle" class="node-sub">资源限制 · API Key</text>
  <text x="480" y="510" text-anchor="middle" class="node-sub">生产 Secret 应强制</text>
  <path d="M590 458 C590 444 760 444 760 458 L760 512 C760 526 590 526 590 512 Z" fill="#ecfdf5" stroke="#059669" stroke-width="2"/>
  <ellipse cx="675" cy="458" rx="85" ry="14" fill="#d1fae5" stroke="#059669" stroke-width="2"/>
  <text x="675" y="484" text-anchor="middle" class="node-title">RWX PVC</text>
  <text x="675" y="506" text-anchor="middle" class="node-sub">/data/uploads · 20 GiB</text>
  <text x="675" y="526" text-anchor="middle" class="node-sub">建议基础设施预创建</text>
  <path d="M258 252 L370 252" fill="none" stroke="#2563eb" stroke-width="2.5" marker-end="url(#arrow-blue)"/>
  <rect x="280" y="225" width="70" height="20" rx="5" fill="#f8fafc" opacity="0.96"/>
  <text x="315" y="240" text-anchor="middle" class="arrow-label" fill="#2563eb">跨集群</text>
  <path d="M540 252 L580 252" fill="none" stroke="#2563eb" stroke-width="2.5" marker-end="url(#arrow-blue)"/>
  <path d="M740 252 L820 236" fill="none" stroke="#2563eb" stroke-width="2.5" marker-end="url(#arrow-blue)"/>
  <path d="M258 320 L315 320 L315 335 L660 335 L660 300" fill="none" stroke="#2563eb" stroke-width="1.8" stroke-dasharray="6 4" marker-end="url(#arrow-blue)"/>
  <rect x="445" y="322" width="90" height="20" rx="5" fill="#f8fafc" opacity="0.96"/>
  <text x="490" y="337" text-anchor="middle" class="arrow-label" fill="#2563eb">同集群直连</text>
  <path d="M1010 236 L1050 236" fill="none" stroke="#059669" stroke-width="2" marker-end="url(#arrow-green)"/>
  <rect x="1009" y="206" width="42" height="20" rx="5" fill="#f8fafc" opacity="0.96"/>
  <text x="1030" y="221" text-anchor="middle" class="arrow-label" fill="#059669">保存</text>
  <path d="M1155 277 L1155 300 L770 300 L770 482 L760 482" fill="none" stroke="#059669" stroke-width="2" marker-end="url(#arrow-green)"/>
  <rect x="930" y="286" width="92" height="20" rx="5" fill="#f8fafc" opacity="0.96"/>
  <text x="976" y="301" text-anchor="middle" class="arrow-label" fill="#059669">上传文件读写</text>
  <path d="M915 277 L915 325" fill="none" stroke="#ea580c" stroke-width="2" marker-end="url(#arrow-orange)"/>
  <path d="M1010 366 L1050 366" fill="none" stroke="#7c3aed" stroke-width="2.5" marker-end="url(#arrow-purple)"/>
  <rect x="1007" y="337" width="46" height="20" rx="5" fill="#f8fafc" opacity="0.96"/>
  <text x="1030" y="352" text-anchor="middle" class="arrow-label" fill="#7c3aed">启动</text>
  <path d="M1155 407 L1155 465" fill="none" stroke="#7c3aed" stroke-width="2" marker-end="url(#arrow-purple)"/>
  <path d="M480 430 L480 415 L780 415 L780 300 L900 300 L900 277" fill="none" stroke="#eab308" stroke-width="1.8" stroke-dasharray="6 4" marker-end="url(#arrow-orange)"/>
  <rect x="580" y="390" width="76" height="20" rx="5" fill="#f8fafc" opacity="0.96"/>
  <text x="618" y="405" text-anchor="middle" class="arrow-label" fill="#a16207">配置注入</text>
  <rect x="40" y="675" width="1320" height="165" rx="18" fill="#fff7ed" stroke="#fb923c" stroke-width="2" stroke-dasharray="9 6"/>
  <text x="68" y="708" class="zone-title" fill="#c2410c">CI/CD 交付链路</text>
  <rect x="85" y="735" width="190" height="76" rx="13" fill="#ffffff" stroke="#f97316" stroke-width="2"/>
  <text x="180" y="767" text-anchor="middle" class="node-title">Jenkins</text>
  <text x="180" y="791" text-anchor="middle" class="node-sub">测试 · Ruff · Docker Build</text>
  <rect x="365" y="735" width="190" height="76" rx="13" fill="#ffffff" stroke="#f97316" stroke-width="2"/>
  <text x="460" y="767" text-anchor="middle" class="node-title">Harbor</text>
  <text x="460" y="791" text-anchor="middle" class="node-sub">build number + latest</text>
  <rect x="645" y="735" width="230" height="76" rx="13" fill="#ffffff" stroke="#f97316" stroke-width="2"/>
  <text x="760" y="762" text-anchor="middle" class="node-title">完整清单渲染</text>
  <text x="760" y="786" text-anchor="middle" class="node-sub">Kustomize · 唯一镜像替换与校验</text>
  <rect x="990" y="735" width="250" height="76" rx="13" fill="#ffffff" stroke="#f97316" stroke-width="2"/>
  <text x="1115" y="762" text-anchor="middle" class="node-title">Kubernetes Deployment</text>
  <text x="1115" y="786" text-anchor="middle" class="node-sub">单次 apply · rollout · 失败诊断</text>
  <path d="M275 773 L365 773" fill="none" stroke="#ea580c" stroke-width="2.2" marker-end="url(#arrow-orange)"/>
  <text x="320" y="758" text-anchor="middle" class="arrow-label" fill="#c2410c">推送镜像</text>
  <path d="M555 773 L645 773" fill="none" stroke="#ea580c" stroke-width="2.2" marker-end="url(#arrow-orange)"/>
  <text x="600" y="758" text-anchor="middle" class="arrow-label" fill="#c2410c">构建号</text>
  <path d="M875 773 L990 773" fill="none" stroke="#ea580c" stroke-width="2.2" marker-end="url(#arrow-orange)"/>
  <text x="932" y="758" text-anchor="middle" class="arrow-label" fill="#c2410c">apply 一次</text>
  <path d="M1115 735 L1115 610 L1060 610 L1060 575" fill="none" stroke="#ea580c" stroke-width="1.8" stroke-dasharray="6 4" marker-end="url(#arrow-orange)"/>
  <line x1="55" y1="870" x2="95" y2="870" stroke="#2563eb" stroke-width="2.5" marker-end="url(#arrow-blue)"/>
  <text x="105" y="875" class="legend">业务请求 / 响应</text>
  <line x1="285" y1="870" x2="325" y2="870" stroke="#059669" stroke-width="2.5" marker-end="url(#arrow-green)"/>
  <text x="335" y="875" class="legend">文件数据流</text>
  <line x1="500" y1="870" x2="540" y2="870" stroke="#7c3aed" stroke-width="2.5" marker-end="url(#arrow-purple)"/>
  <text x="550" y="875" class="legend">子进程执行</text>
  <line x1="715" y1="870" x2="755" y2="870" stroke="#ea580c" stroke-width="2.5" marker-end="url(#arrow-orange)"/>
  <text x="765" y="875" class="legend">控制 / 部署</text>
  <text x="1035" y="875" class="legend" fill="#64748b">当前实现快照 · 2026-07-17</text>
</svg>